HIERARCHY
ROOT hip
{
  OFFSET 0 0 0
  CHANNELS 6 Xposition Yposition Zposition Zrotation Yrotation Xrotation
  JOINT abdomen
  {
    OFFSET 0 20.6881 -0.73152
    CHANNELS 3 Zrotation Xrotation Yrotation
    JOINT chest
    {
      OFFSET 0 11.7043 -0.48768
      CHANNELS 3 Zrotation Xrotation Yrotation
      JOINT neck
      {
        OFFSET 0 22.1894 -2.19456
        CHANNELS 3 Zrotation Xrotation Yrotation
        JOINT head
        {
          OFFSET -0.24384 7.07133 1.2192
          CHANNELS 3 Zrotation Xrotation Yrotation
          JOINT leftEye
          {
            OFFSET 4.14528 8.04674 8.04672
            CHANNELS 3 Zrotation Xrotation Yrotation
            End Site
            {
              OFFSET 1 0 0
            }
          }
          JOINT rightEye
          {
            OFFSET -3.6576 8.04674 8.04672
            CHANNELS 3 Zrotation Xrotation Yrotation
            End Site
            {
              OFFSET 1 0 0
            }
          }
        }
      }
      JOINT rCollar
      {
        OFFSET -2.68224 19.2634 -4.8768
        CHANNELS 3 Zrotation Xrotation Yrotation
        JOINT rShldr
        {
          OFFSET -8.77824 -1.95073 1.46304
          CHANNELS 3 Zrotation Xrotation Yrotation
          JOINT rForeArm
          {
            OFFSET -28.1742 -1.7115 0.48768
            CHANNELS 3 Zrotation Xrotation Yrotation
            JOINT rHand
            {
              OFFSET -22.5879 0.773209 7.07136
              CHANNELS 3 Zrotation Xrotation Yrotation
              JOINT rThumb1
              {
                OFFSET -1.2192 -0.487915 3.41376
                CHANNELS 3 Zrotation Xrotation Yrotation
                JOINT rThumb2
                {
                  OFFSET -3.37035 -0.52449 3.41376
                  CHANNELS 3 Zrotation Xrotation Yrotation
                  End Site
                  {
                    OFFSET -1.78271 -1.18214 1.43049
                  }
                }
              }
              JOINT rIndex1
              {
                OFFSET -7.75947 0.938293 5.60832
                CHANNELS 3 Zrotation Xrotation Yrotation
                JOINT rIndex2
                {
                  OFFSET -2.54057 -0.884171 1.56538
                  CHANNELS 3 Zrotation Xrotation Yrotation
                  End Site
                  {
                    OFFSET -1.62519 -0.234802 1.16502
                  }
                }
              }
              JOINT rMid1
              {
                OFFSET -8.24714 1.18213 3.41376
                CHANNELS 3 Zrotation Xrotation Yrotation
                JOINT rMid2
                {
                  OFFSET -3.10165 -0.590103 1.0647
                  CHANNELS 3 Zrotation Xrotation Yrotation
                  End Site
                  {
                    OFFSET -2.48547 -0.328903 0.83742
                  }
                }
              }
              JOINT rRing1
              {
                OFFSET -8.82822 0.546677 1.51678
                CHANNELS 3 Zrotation Xrotation Yrotation
                JOINT rRing2
                {
                  OFFSET -2.60934 -0.819778 -0.0198488
                  CHANNELS 3 Zrotation Xrotation Yrotation
                  End Site
                  {
                    OFFSET -2.33842 -0.294052 0.168128
                  }
                }
              }
              JOINT rPinky1
              {
                OFFSET -8.27202 -0.0477905 -0.4584
                CHANNELS 3 Zrotation Xrotation Yrotation
                JOINT rPinky2
                {
                  OFFSET -1.82734 -0.647385 -0.700984
                  CHANNELS 3 Zrotation Xrotation Yrotation
                  End Site
                  {
                    OFFSET -1.69225 -0.51767 -0.607171
                  }
                }
              }
            }
          }
        }
      }
      JOINT lCollar
      {
        OFFSET 2.68224 19.2634 -4.8768
        CHANNELS 3 Zrotation Xrotation Yrotation
        JOINT lShldr
        {
          OFFSET 8.77824 -1.95073 1.46304
          CHANNELS 3 Zrotation Xrotation Yrotation
          JOINT lForeArm
          {
            OFFSET 28.1742 -1.7115 0.48768
            CHANNELS 3 Zrotation Xrotation Yrotation
            JOINT lHand
            {
              OFFSET 22.5879 0.773209 7.07136
              CHANNELS 3 Zrotation Xrotation Yrotation
              JOINT lThumb1
              {
                OFFSET 1.2192 -0.487915 3.41376
                CHANNELS 3 Zrotation Xrotation Yrotation
                JOINT lThumb2
                {
                  OFFSET 3.37035 -0.52449 3.41376
                  CHANNELS 3 Zrotation Xrotation Yrotation
                  End Site
                  {
                    OFFSET 1.78271 -1.18214 1.43049
                  }
                }
              }
              JOINT lIndex1
              {
                OFFSET 7.75947 0.938293 5.60832
                CHANNELS 3 Zrotation Xrotation Yrotation
                JOINT lIndex2
                {
                  OFFSET 2.54057 -0.884171 1.56538
                  CHANNELS 3 Zrotation Xrotation Yrotation
                  End Site
                  {
                    OFFSET 1.62519 -0.234802 1.16502
                  }
                }
              }
              JOINT lMid1
              {
                OFFSET 8.24714 1.18213 3.41376
                CHANNELS 3 Zrotation Xrotation Yrotation
                JOINT lMid2
                {
                  OFFSET 3.10165 -0.590103 1.0647
                  CHANNELS 3 Zrotation Xrotation Yrotation
                  End Site
                  {
                    OFFSET 2.48547 -0.328903 0.83742
                  }
                }
              }
              JOINT lRing1
              {
                OFFSET 8.82822 0.546677 1.51678
                CHANNELS 3 Zrotation Xrotation Yrotation
                JOINT lRing2
                {
                  OFFSET 2.60934 -0.819778 -0.0198488
                  CHANNELS 3 Zrotation Xrotation Yrotation
                  End Site
                  {
                    OFFSET 2.33842 -0.294052 0.168128
                  }
                }
              }
              JOINT lPinky1
              {
                OFFSET 8.27202 -0.0477905 -0.4584
                CHANNELS 3 Zrotation Xrotation Yrotation
                JOINT lPinky2
                {
                  OFFSET 1.82734 -0.647385 -0.700984
                  CHANNELS 3 Zrotation Xrotation Yrotation
                  End Site
                  {
                    OFFSET 1.69225 -0.51767 -0.607171
                  }
                }
              }
            }
          }
        }
      }
    }
  }
  JOINT rButtock
  {
    OFFSET -8.77824 4.35084 1.2192
    CHANNELS 3 Zrotation Xrotation Yrotation
    JOINT rThigh
    {
      OFFSET 0 -1.70687 -2.19456
      CHANNELS 3 Zrotation Xrotation Yrotation
      JOINT rShin
      {
        OFFSET 0 -36.8199 0.73152
        CHANNELS 3 Zrotation Xrotation Yrotation
        JOINT rFoot
        {
          OFFSET 0.73152 -45.1104 -5.12064
          CHANNELS 3 Zrotation Xrotation Yrotation
          End Site
          {
            OFFSET -1.1221 -3.69964 12.103
          }
        }
      }
    }
  }
  JOINT lButtock
  {
    OFFSET 8.77824 4.35084 1.2192
    CHANNELS 3 Zrotation Xrotation Yrotation
    JOINT lThigh
    {
      OFFSET 0 -1.70687 -2.19456
      CHANNELS 3 Zrotation Xrotation Yrotation
      JOINT lShin
      {
        OFFSET 0 -36.8199 0.73152
        CHANNELS 3 Zrotation Xrotation Yrotation
        JOINT lFoot
        {
          OFFSET -0.73152 -45.1104 -5.12064
          CHANNELS 3 Zrotation Xrotation Yrotation
          End Site
          {
            OFFSET 1.1221 -3.69964 12.103
          }
        }
      }
    }
  }
}
MOTION
Frames:	4
Frame Time:	0.03333
4.6584028750658035 46.27298712730408 -6.385206431150436 -16.95022964477539 -24.745140075683594 16.627151489257812 11.777335166931152 6.258347511291504 3.208672285079956 2.0118772983551025 -7.8706793785095215 0.7088273763656616 -0.2180938720703125 12.126623153686523 5.41121244430542 5.849259853363037 -24.371671676635742 12.548583030700684 0.02650931477546692 -0.06848932802677155 -0.12634572386741638 -0.00883147306740284 0.018801216036081314 0.03304458409547806 -0.040340617299079895 -0.04776018112897873 -0.08454584330320358 106.00647735595703 46.307525634765625 -56.85843276977539 -27.122844696044922 -43.39095687866211 90.13814544677734 -8.381730079650879 -60.711490631103516 -14.13636589050293 -0.1130538061261177 0.017553210258483887 -0.01501329243183136 -0.025959081947803497 0.09574634581804276 0.020126376301050186 -0.056161247193813324 -0.018670879304409027 0.05330875143408775 7.795607566833496 5.486910820007324 0.4852117598056793 -0.07160315662622452 -0.08606457710266113 0.05466919764876366 2.849137783050537 0.9495029449462891 0.11924730986356735 0.015360794961452484 0.02587226964533329 -0.04898764565587044 10.272191047668457 0.5070933103561401 0.12403282523155212 0.06688175350427628 -0.08742918074131012 -0.06265774369239807 2.2879116535186768 -0.6807125806808472 -0.27196046710014343 0.002068317262455821 0.08942704647779465 0.09635846316814423 -61.08998107910156 -22.470752716064453 -79.90998840332031 7.343568325042725 -2.7364981174468994 -13.471548080444336 11.595062255859375 65.56885528564453 -17.95979881286621 -0.017266899347305298 -0.07536572217941284 0.1292288601398468 -0.05943142995238304 0.03819150850176811 0.03075730800628662 -0.05899609997868538 0.12840785086154938 -0.0163473729044199 -7.689164638519287 5.5652008056640625 -0.36606571078300476 0.05258240923285484 -0.009709238074719906 0.10261432081460953 -2.917578935623169 0.9259536862373352 -0.09413441270589828 0.055627159774303436 -0.03157117962837219 -0.01749475859105587 -10.260791778564453 0.7588826417922974 -0.11767013370990753 -0.005984159652143717 0.018277768045663834 -0.0463041216135025 -2.200347661972046 -0.7379132509231567 0.14577050507068634 -0.025826571509242058 -0.03733617812395096 0.03320147842168808 -11.504066467285156 13.144213676452637 -5.180825233459473 0.08076367527246475 30.508056640625 2.609712600708008 -8.45023250579834 -16.2901554107666 -33.40959167480469 0.09110771864652634 -0.05177350714802742 -0.01607990264892578 98.32833099365234 -55.80403137207031 87.60869598388672 7.196435928344727 83.12896728515625 -6.271667957305908 -1.2769924402236938 -0.30170461535453796 -11.111552238464355
4.7430409118533134 48.182809352874756 -6.548355799168348 -16.64385986328125 -24.713178634643555 16.624828338623047 11.709152221679688 6.1347832679748535 3.2663490772247314 2.049398422241211 -7.906548500061035 0.7511091828346252 -0.1730450540781021 12.071269035339355 5.235661029815674 5.776483058929443 -24.39569664001465 12.352155685424805 0.0658949464559555 -0.05723927170038223 -0.17944172024726868 0.009454047307372093 0.07378611713647842 0.030156275257468224 0.00573913287371397 -0.05271928012371063 -0.10266827791929245 105.63471984863281 45.888179779052734 -56.64659881591797 -27.028812408447266 -43.38526153564453 90.14405822753906 -8.439242362976074 -60.66702651977539 -14.100201606750488 -0.11512542515993118 0.05810807645320892 -0.032626599073410034 -0.017052244395017624 0.04507279023528099 -0.010954192839562893 -0.08975657820701599 -0.03003956563770771 0.07455916702747345 7.808921813964844 5.499381065368652 0.4693930745124817 -0.09952078014612198 -0.07491327822208405 0.05128975957632065 2.9097611904144287 0.9404495358467102 0.10256551206111908 0.023880627006292343 0.0308802779763937 -0.04547232389450073 10.286554336547852 0.47721216082572937 0.11200878769159317 0.08740755915641785 -0.08492125570774078 -0.058911968022584915 2.299670696258545 -0.6767503619194031 -0.276962012052536 0.020386897027492523 0.08232933282852173 0.11739512532949448 -60.843536376953125 -22.119525909423828 -79.43753051757812 7.506453514099121 -2.708524703979492 -13.817778587341309 10.974407196044922 64.98831176757812 -17.32048797607422 0.04777226224541664 -0.09072636067867279 0.13616901636123657 -0.06119036674499512 0.008711525239050388 0.013309888541698456 -0.06503552943468094 0.06842115521430969 0.017400255426764488 -7.695897579193115 5.533748149871826 -0.3401187062263489 0.04555118456482887 0.0024373424239456654 0.12804417312145233 -2.9284751415252686 0.9581602215766907 -0.09517018496990204 0.07760339975357056 -0.036848779767751694 -0.026303883641958237 -10.283373832702637 0.762660026550293 -0.10832864791154861 -0.00521089369431138 -0.023259229958057404 -0.010539530776441097 -2.1831817626953125 -0.722579836845398 0.1755482256412506 -0.045170485973358154 0.0008979899575933814 -0.004435219801962376 -11.230210304260254 12.984602928161621 -5.266322135925293 0.001980043714866042 30.726978302001953 2.5819895267486572 -8.464546203613281 -16.26539421081543 -33.0656852722168 0.10357329994440079 -0.06537497043609619 0.045546334236860275 97.5504379272461 -55.94881057739258 86.85128021240234 6.7852373123168945 82.87838745117188 -5.896567344665527 -1.1112866401672363 -0.32488635182380676 -10.825514793395996
4.836851824074984 47.879427671432495 -6.670320685952902 -16.45541000366211 -24.96533966064453 16.75255012512207 11.848262786865234 6.050623416900635 3.164024829864502 2.040736675262451 -7.7890448570251465 0.730265736579895 -0.04596563056111336 12.119742393493652 5.551918029785156 5.589604377746582 -24.23130989074707 12.73205852508545 0.08205229043960571 -0.005686758551746607 -0.10614132881164551 0.005918486975133419 0.06512419879436493 -0.033531393855810165 0.009005890227854252 -0.03280537948012352 -0.09778931736946106 106.19049072265625 45.680965423583984 -57.218482971191406 -26.873085021972656 -43.431365966796875 90.46593475341797 -8.617609024047852 -60.99274826049805 -14.30910873413086 -0.08684123307466507 0.03564505651593208 -0.04022352024912834 0.007729159668087959 -0.018761396408081055 -0.0483870692551136 -0.08524079620838165 -0.05032078176736832 0.10260283946990967 7.807886123657227 5.497250556945801 0.411283016204834 -0.021290503442287445 -0.07614023983478546 0.019906023517251015 2.9039711952209473 0.9290522336959839 0.12063467502593994 -0.0019347877241671085 0.05690476670861244 -0.04963429644703865 10.282062530517578 0.5413075685501099 0.119278684258461 0.053782012313604355 -0.07393128424882889 -0.05513421818614006 2.280655860900879 -0.679539144039154 -0.20975662767887115 -0.01676739566028118 0.05169909819960594 0.06704234331846237 -61.44977951049805 -22.521697998046875 -80.06111907958984 7.296995639801025 -2.547842025756836 -13.252050399780273 11.356081008911133 65.18875885009766 -17.64990997314453 0.05895964801311493 -0.049876995384693146 0.008016361854970455 -0.04099639877676964 0.01229415275156498 0.018734270706772804 -0.06434409320354462 0.06834965199232101 0.005443751811981201 -7.6940531730651855 5.4926581382751465 -0.3073440492153168 0.013322064653038979 -0.005438735242933035 0.07228771597146988 -2.944904327392578 0.9751359224319458 -0.13789469003677368 0.059933263808488846 -0.01674652472138405 -0.011481501162052155 -10.255879402160645 0.7768740653991699 -0.08332496881484985 -0.054499391466379166 -0.024325260892510414 0.05784997716546059 -2.1699447631835938 -0.729942798614502 0.15835458040237427 -0.041518013924360275 0.03395312651991844 -0.0258939191699028 -11.20388126373291 13.443757057189941 -4.882030963897705 0.005475169979035854 30.06902503967285 2.6229467391967773 -8.439074516296387 -16.544830322265625 -33.090972900390625 0.04150775074958801 -0.035527534782886505 0.07033485174179077 97.8021469116211 -55.886905670166016 86.78260040283203 6.211588382720947 82.74076080322266 -5.4670257568359375 -1.4246363639831543 0.05524499714374542 -11.181309700012207
4.945810232311487 47.16678559780121 -6.762922741472721 -16.656593322753906 -24.98105812072754 16.728605270385742 11.815074920654297 6.019913196563721 3.1484081745147705 2.0871033668518066 -7.789073944091797 0.7233773469924927 -0.06349744647741318 12.172663688659668 5.685673713684082 5.721115589141846 -23.95819091796875 12.840299606323242 0.055361829698085785 0.011017829179763794 -0.06761020421981812 -0.01735595427453518 0.01949148252606392 -0.021705524995923042 0.0332084596157074 -0.013828607276082039 -0.11908167600631714 106.8396987915039 46.007598876953125 -57.60126495361328 -26.919876098632812 -43.448909759521484 90.57032775878906 -8.5905179977417 -61.024417877197266 -14.312117576599121 -0.08087122440338135 -0.008775768801569939 -0.010370363481342793 0.03853670507669449 0.0037071325350552797 -0.04290579631924629 -0.05126326158642769 -0.02768036536872387 0.06736119091510773 7.818892002105713 5.469499588012695 0.41444578766822815 0.030031166970729828 -0.057838909327983856 -0.01339113712310791 2.8648180961608887 0.9781191349029541 0.1344917118549347 0.002018823754042387 0.03713255375623703 -0.035932689905166626 10.282669067382812 0.5402712225914001 0.12201760709285736 0.028111323714256287 -0.012120719067752361 -0.05621609836816788 2.298213481903076 -0.6799702048301697 -0.16946817934513092 0.028604067862033844 0.05838271975517273 0.04768332839012146 -61.90447998046875 -22.758155822753906 -80.38710021972656 7.434948444366455 -2.638129949569702 -13.355775833129883 12.01378345489502 65.7397689819336 -18.325529098510742 0.057075247168540955 -0.02439800649881363 -0.01990615949034691 -0.019064193591475487 0.028052043169736862 -0.023670224472880363 -0.03832206502556801 0.010551391169428825 0.01686280407011509 -7.6610212326049805 5.478613376617432 -0.34730955958366394 -0.0029806802049279213 0.016256945207715034 0.06919851899147034 -2.9331600666046143 0.9505009651184082 -0.13988232612609863 0.03788750246167183 -0.028228120878338814 0.01058077160269022 -10.28927993774414 0.7722432613372803 -0.06294768303632736 -0.059835921972990036 -0.0454215481877327 0.04504663497209549 -2.1584959030151367 -0.6773928999900818 0.14987583458423615 -0.03951719030737877 0.02276022732257843 -0.001986860064789653 -11.291675567626953 13.566007614135742 -4.767967700958252 -0.01850031688809395 29.794967651367188 2.6836163997650146 -8.4255952835083 -16.74629783630371 -33.05290222167969 0.01904786191880703 -0.044917572289705276 0.048562753945589066 98.22158813476562 -55.62856674194336 87.13519287109375 6.387006759643555 82.75068664550781 -5.695696830749512 -1.5783780813217163 0.35671767592430115 -11.490361213684082
